<mxfile host="app.diagrams.net" modified="2023-04-09T12:04:41.241Z" agent="Mozilla/5.0 (Windows NT 10.0; Win64; x64; rv:109.0) Gecko/20100101 Firefox/111.0" etag="YaJgS9t2du0NQFDdXLg3" version="21.1.5" type="device">
  <diagram name="Страница 1" id="IK5XrIEwIjY23qLcvdmW">
    <mxGraphModel dx="1434" dy="782" grid="1" gridSize="10" guides="1" tooltips="1" connect="1" arrows="1" fold="1" page="1" pageScale="1" pageWidth="827" pageHeight="1169" math="0" shadow="0">
      <root>
        <mxCell id="0" />
        <mxCell id="1" parent="0" />
        <mxCell id="yMIgs4-DkIaWkRvwwl_T-1" value="Schicksal" style="swimlane;html=1;childLayout=stackLayout;startSize=20;rounded=0;shadow=0;comic=0;labelBackgroundColor=none;strokeWidth=1;fontFamily=Verdana;fontSize=12;align=center;" vertex="1" parent="1">
          <mxGeometry x="45" y="40" width="760" height="1110" as="geometry" />
        </mxCell>
        <mxCell id="yMIgs4-DkIaWkRvwwl_T-17" style="edgeStyle=orthogonalEdgeStyle;rounded=0;orthogonalLoop=1;jettySize=auto;html=1;entryX=0.5;entryY=0;entryDx=0;entryDy=0;" edge="1" parent="yMIgs4-DkIaWkRvwwl_T-1" source="yMIgs4-DkIaWkRvwwl_T-6" target="yMIgs4-DkIaWkRvwwl_T-25">
          <mxGeometry relative="1" as="geometry">
            <mxPoint x="230" y="280" as="targetPoint" />
            <Array as="points">
              <mxPoint x="230" y="145" />
              <mxPoint x="230" y="110" />
              <mxPoint x="415" y="110" />
            </Array>
          </mxGeometry>
        </mxCell>
        <mxCell id="yMIgs4-DkIaWkRvwwl_T-18" value="Импорт таблицы" style="edgeLabel;html=1;align=center;verticalAlign=middle;resizable=0;points=[];" vertex="1" connectable="0" parent="yMIgs4-DkIaWkRvwwl_T-17">
          <mxGeometry x="-0.2364" y="1" relative="1" as="geometry">
            <mxPoint x="1" as="offset" />
          </mxGeometry>
        </mxCell>
        <mxCell id="yMIgs4-DkIaWkRvwwl_T-19" style="edgeStyle=orthogonalEdgeStyle;rounded=0;orthogonalLoop=1;jettySize=auto;html=1;entryX=0;entryY=0.5;entryDx=0;entryDy=0;" edge="1" parent="yMIgs4-DkIaWkRvwwl_T-1" source="yMIgs4-DkIaWkRvwwl_T-3" target="yMIgs4-DkIaWkRvwwl_T-25">
          <mxGeometry relative="1" as="geometry" />
        </mxCell>
        <mxCell id="yMIgs4-DkIaWkRvwwl_T-20" style="edgeStyle=orthogonalEdgeStyle;rounded=0;orthogonalLoop=1;jettySize=auto;html=1;" edge="1" parent="yMIgs4-DkIaWkRvwwl_T-1" source="yMIgs4-DkIaWkRvwwl_T-25" target="yMIgs4-DkIaWkRvwwl_T-10">
          <mxGeometry relative="1" as="geometry">
            <Array as="points">
              <mxPoint x="415" y="290" />
              <mxPoint x="185" y="290" />
            </Array>
          </mxGeometry>
        </mxCell>
        <mxCell id="yMIgs4-DkIaWkRvwwl_T-21" style="edgeStyle=orthogonalEdgeStyle;rounded=0;orthogonalLoop=1;jettySize=auto;html=1;" edge="1" parent="yMIgs4-DkIaWkRvwwl_T-1" source="yMIgs4-DkIaWkRvwwl_T-13" target="yMIgs4-DkIaWkRvwwl_T-27">
          <mxGeometry relative="1" as="geometry" />
        </mxCell>
        <mxCell id="yMIgs4-DkIaWkRvwwl_T-22" style="edgeStyle=orthogonalEdgeStyle;rounded=0;orthogonalLoop=1;jettySize=auto;html=1;entryX=1;entryY=0;entryDx=0;entryDy=0;" edge="1" parent="yMIgs4-DkIaWkRvwwl_T-1" source="yMIgs4-DkIaWkRvwwl_T-27" target="yMIgs4-DkIaWkRvwwl_T-6">
          <mxGeometry relative="1" as="geometry">
            <Array as="points">
              <mxPoint x="510" y="505" />
              <mxPoint x="510" y="70" />
              <mxPoint x="176" y="70" />
            </Array>
          </mxGeometry>
        </mxCell>
        <mxCell id="yMIgs4-DkIaWkRvwwl_T-23" value="Нет" style="edgeLabel;html=1;align=center;verticalAlign=middle;resizable=0;points=[];" vertex="1" connectable="0" parent="yMIgs4-DkIaWkRvwwl_T-22">
          <mxGeometry x="-0.9393" y="-2" relative="1" as="geometry">
            <mxPoint as="offset" />
          </mxGeometry>
        </mxCell>
        <mxCell id="yMIgs4-DkIaWkRvwwl_T-2" value="Пользователь" style="swimlane;html=1;startSize=20;" vertex="1" parent="yMIgs4-DkIaWkRvwwl_T-1">
          <mxGeometry y="20" width="290" height="1090" as="geometry" />
        </mxCell>
        <mxCell id="yMIgs4-DkIaWkRvwwl_T-3" value="Заполнение колонок" style="rounded=1;whiteSpace=wrap;html=1;shadow=0;comic=0;labelBackgroundColor=none;strokeWidth=1;fontFamily=Verdana;fontSize=12;align=center;arcSize=50;" vertex="1" parent="yMIgs4-DkIaWkRvwwl_T-2">
          <mxGeometry x="20" y="220" width="100" height="30" as="geometry" />
        </mxCell>
        <mxCell id="yMIgs4-DkIaWkRvwwl_T-4" value="" style="ellipse;whiteSpace=wrap;html=1;rounded=0;shadow=0;comic=0;labelBackgroundColor=none;strokeWidth=1;fillColor=#000000;fontFamily=Verdana;fontSize=12;align=center;" vertex="1" parent="yMIgs4-DkIaWkRvwwl_T-2">
          <mxGeometry x="127.5" y="30" width="40" height="40" as="geometry" />
        </mxCell>
        <mxCell id="yMIgs4-DkIaWkRvwwl_T-5" style="edgeStyle=orthogonalEdgeStyle;rounded=0;html=1;labelBackgroundColor=none;startArrow=none;startFill=0;startSize=5;endArrow=classicThin;endFill=1;endSize=5;jettySize=auto;orthogonalLoop=1;strokeWidth=1;fontFamily=Verdana;fontSize=12;entryX=0.5;entryY=0;entryDx=0;entryDy=0;" edge="1" parent="yMIgs4-DkIaWkRvwwl_T-2" source="yMIgs4-DkIaWkRvwwl_T-4" target="yMIgs4-DkIaWkRvwwl_T-6">
          <mxGeometry relative="1" as="geometry">
            <mxPoint x="150" y="130" as="targetPoint" />
          </mxGeometry>
        </mxCell>
        <mxCell id="yMIgs4-DkIaWkRvwwl_T-6" value="Ввод данных" style="rhombus;whiteSpace=wrap;html=1;" vertex="1" parent="yMIgs4-DkIaWkRvwwl_T-2">
          <mxGeometry x="90" y="100" width="115" height="50" as="geometry" />
        </mxCell>
        <mxCell id="yMIgs4-DkIaWkRvwwl_T-7" style="edgeStyle=orthogonalEdgeStyle;rounded=0;html=1;exitX=0;exitY=0.5;entryX=0.5;entryY=0;labelBackgroundColor=none;startArrow=none;startFill=0;startSize=5;endArrow=classicThin;endFill=1;endSize=5;jettySize=auto;orthogonalLoop=1;strokeWidth=1;fontFamily=Verdana;fontSize=12;exitDx=0;exitDy=0;" edge="1" parent="yMIgs4-DkIaWkRvwwl_T-2" source="yMIgs4-DkIaWkRvwwl_T-6" target="yMIgs4-DkIaWkRvwwl_T-3">
          <mxGeometry relative="1" as="geometry">
            <Array as="points">
              <mxPoint x="70" y="125" />
            </Array>
            <mxPoint x="316.75" y="170" as="sourcePoint" />
          </mxGeometry>
        </mxCell>
        <mxCell id="yMIgs4-DkIaWkRvwwl_T-8" value="Создание таблицы" style="edgeLabel;html=1;align=center;verticalAlign=middle;resizable=0;points=[];" vertex="1" connectable="0" parent="yMIgs4-DkIaWkRvwwl_T-7">
          <mxGeometry x="0.0914" y="2" relative="1" as="geometry">
            <mxPoint as="offset" />
          </mxGeometry>
        </mxCell>
        <mxCell id="yMIgs4-DkIaWkRvwwl_T-9" style="edgeStyle=orthogonalEdgeStyle;rounded=0;orthogonalLoop=1;jettySize=auto;html=1;entryX=0.5;entryY=0;entryDx=0;entryDy=0;" edge="1" parent="yMIgs4-DkIaWkRvwwl_T-2" source="yMIgs4-DkIaWkRvwwl_T-10" target="yMIgs4-DkIaWkRvwwl_T-12">
          <mxGeometry relative="1" as="geometry" />
        </mxCell>
        <mxCell id="yMIgs4-DkIaWkRvwwl_T-10" value="Просмотр таблицы и редактирование" style="rounded=1;whiteSpace=wrap;html=1;shadow=0;comic=0;labelBackgroundColor=none;strokeWidth=1;fontFamily=Verdana;fontSize=12;align=center;arcSize=50;" vertex="1" parent="yMIgs4-DkIaWkRvwwl_T-2">
          <mxGeometry x="120" y="300" width="130" height="60" as="geometry" />
        </mxCell>
        <mxCell id="yMIgs4-DkIaWkRvwwl_T-11" style="edgeStyle=orthogonalEdgeStyle;rounded=0;orthogonalLoop=1;jettySize=auto;html=1;" edge="1" parent="yMIgs4-DkIaWkRvwwl_T-2" source="yMIgs4-DkIaWkRvwwl_T-12" target="yMIgs4-DkIaWkRvwwl_T-13">
          <mxGeometry relative="1" as="geometry" />
        </mxCell>
        <mxCell id="yMIgs4-DkIaWkRvwwl_T-12" value="Выбор дисперсионного анализа или регрессионного" style="rounded=1;whiteSpace=wrap;html=1;shadow=0;comic=0;labelBackgroundColor=none;strokeWidth=1;fontFamily=Verdana;fontSize=12;align=center;arcSize=50;" vertex="1" parent="yMIgs4-DkIaWkRvwwl_T-2">
          <mxGeometry x="121.25" y="410" width="127.5" height="80" as="geometry" />
        </mxCell>
        <mxCell id="yMIgs4-DkIaWkRvwwl_T-13" value="Заполнение колонок факторов и результатов" style="rounded=1;whiteSpace=wrap;html=1;shadow=0;comic=0;labelBackgroundColor=none;strokeWidth=1;fontFamily=Verdana;fontSize=12;align=center;arcSize=50;" vertex="1" parent="yMIgs4-DkIaWkRvwwl_T-2">
          <mxGeometry x="118.75" y="520" width="132.5" height="60" as="geometry" />
        </mxCell>
        <mxCell id="yMIgs4-DkIaWkRvwwl_T-15" value="Просмотр результатов" style="rounded=1;whiteSpace=wrap;html=1;shadow=0;comic=0;labelBackgroundColor=none;strokeWidth=1;fontFamily=Verdana;fontSize=12;align=center;arcSize=50;" vertex="1" parent="yMIgs4-DkIaWkRvwwl_T-2">
          <mxGeometry x="115" y="770" width="132.5" height="60" as="geometry" />
        </mxCell>
        <mxCell id="yMIgs4-DkIaWkRvwwl_T-16" value="" style="shape=mxgraph.bpmn.shape;html=1;verticalLabelPosition=bottom;labelBackgroundColor=#ffffff;verticalAlign=top;perimeter=ellipsePerimeter;outline=end;symbol=terminate;rounded=0;shadow=0;comic=0;strokeWidth=1;fontFamily=Verdana;fontSize=12;align=center;" vertex="1" parent="yMIgs4-DkIaWkRvwwl_T-2">
          <mxGeometry x="151.25" y="1030" width="40" height="40" as="geometry" />
        </mxCell>
        <mxCell id="yMIgs4-DkIaWkRvwwl_T-41" value="Выбор места сохранения html отчёта" style="rounded=1;whiteSpace=wrap;html=1;shadow=0;comic=0;labelBackgroundColor=none;strokeWidth=1;fontFamily=Verdana;fontSize=12;align=center;arcSize=50;" vertex="1" parent="yMIgs4-DkIaWkRvwwl_T-2">
          <mxGeometry x="115" y="940" width="132.5" height="60" as="geometry" />
        </mxCell>
        <mxCell id="yMIgs4-DkIaWkRvwwl_T-40" value="Выбор опции экспорт" style="rounded=1;whiteSpace=wrap;html=1;shadow=0;comic=0;labelBackgroundColor=none;strokeWidth=1;fontFamily=Verdana;fontSize=12;align=center;arcSize=50;" vertex="1" parent="yMIgs4-DkIaWkRvwwl_T-2">
          <mxGeometry x="115" y="850" width="132.5" height="60" as="geometry" />
        </mxCell>
        <mxCell id="yMIgs4-DkIaWkRvwwl_T-42" style="edgeStyle=orthogonalEdgeStyle;rounded=0;orthogonalLoop=1;jettySize=auto;html=1;" edge="1" parent="yMIgs4-DkIaWkRvwwl_T-2" source="yMIgs4-DkIaWkRvwwl_T-15" target="yMIgs4-DkIaWkRvwwl_T-40">
          <mxGeometry relative="1" as="geometry" />
        </mxCell>
        <mxCell id="yMIgs4-DkIaWkRvwwl_T-43" style="edgeStyle=orthogonalEdgeStyle;rounded=0;orthogonalLoop=1;jettySize=auto;html=1;entryX=0.5;entryY=0;entryDx=0;entryDy=0;" edge="1" parent="yMIgs4-DkIaWkRvwwl_T-2" source="yMIgs4-DkIaWkRvwwl_T-40" target="yMIgs4-DkIaWkRvwwl_T-41">
          <mxGeometry relative="1" as="geometry" />
        </mxCell>
        <mxCell id="yMIgs4-DkIaWkRvwwl_T-38" style="edgeStyle=orthogonalEdgeStyle;rounded=0;orthogonalLoop=1;jettySize=auto;html=1;entryX=0.5;entryY=0;entryDx=0;entryDy=0;" edge="1" parent="yMIgs4-DkIaWkRvwwl_T-1" source="yMIgs4-DkIaWkRvwwl_T-34" target="yMIgs4-DkIaWkRvwwl_T-15">
          <mxGeometry relative="1" as="geometry">
            <mxPoint x="501" y="770" as="targetPoint" />
            <Array as="points">
              <mxPoint x="369" y="720" />
              <mxPoint x="501" y="720" />
              <mxPoint x="501" y="770" />
              <mxPoint x="181" y="770" />
            </Array>
          </mxGeometry>
        </mxCell>
        <mxCell id="yMIgs4-DkIaWkRvwwl_T-24" value="Система" style="swimlane;html=1;startSize=20;" vertex="1" parent="yMIgs4-DkIaWkRvwwl_T-1">
          <mxGeometry x="290" y="20" width="470" height="1090" as="geometry" />
        </mxCell>
        <mxCell id="yMIgs4-DkIaWkRvwwl_T-25" value="Рендер табличных данных" style="rounded=1;whiteSpace=wrap;html=1;shadow=0;comic=0;labelBackgroundColor=none;strokeWidth=1;fontFamily=Verdana;fontSize=12;align=center;arcSize=50;" vertex="1" parent="yMIgs4-DkIaWkRvwwl_T-24">
          <mxGeometry x="70" y="110" width="110" height="50" as="geometry" />
        </mxCell>
        <mxCell id="yMIgs4-DkIaWkRvwwl_T-26" style="edgeStyle=orthogonalEdgeStyle;rounded=0;orthogonalLoop=1;jettySize=auto;html=1;entryX=0.5;entryY=0;entryDx=0;entryDy=0;" edge="1" parent="yMIgs4-DkIaWkRvwwl_T-24" source="yMIgs4-DkIaWkRvwwl_T-27" target="yMIgs4-DkIaWkRvwwl_T-33">
          <mxGeometry relative="1" as="geometry" />
        </mxCell>
        <mxCell id="yMIgs4-DkIaWkRvwwl_T-27" value="Данные заполнены верно" style="rhombus;whiteSpace=wrap;html=1;" vertex="1" parent="yMIgs4-DkIaWkRvwwl_T-24">
          <mxGeometry x="30" y="450" width="102" height="70" as="geometry" />
        </mxCell>
        <mxCell id="yMIgs4-DkIaWkRvwwl_T-31" style="edgeStyle=orthogonalEdgeStyle;rounded=0;orthogonalLoop=1;jettySize=auto;html=1;" edge="1" parent="yMIgs4-DkIaWkRvwwl_T-24" source="yMIgs4-DkIaWkRvwwl_T-33" target="yMIgs4-DkIaWkRvwwl_T-34">
          <mxGeometry relative="1" as="geometry" />
        </mxCell>
        <mxCell id="yMIgs4-DkIaWkRvwwl_T-32" style="edgeStyle=orthogonalEdgeStyle;rounded=0;orthogonalLoop=1;jettySize=auto;html=1;" edge="1" parent="yMIgs4-DkIaWkRvwwl_T-24" source="yMIgs4-DkIaWkRvwwl_T-33" target="yMIgs4-DkIaWkRvwwl_T-36">
          <mxGeometry relative="1" as="geometry" />
        </mxCell>
        <mxCell id="yMIgs4-DkIaWkRvwwl_T-33" value="" style="whiteSpace=wrap;html=1;rounded=0;shadow=0;comic=0;labelBackgroundColor=none;strokeWidth=1;fillColor=#000000;fontFamily=Verdana;fontSize=12;align=center;rotation=0;" vertex="1" parent="yMIgs4-DkIaWkRvwwl_T-24">
          <mxGeometry x="12" y="590" width="398" height="10" as="geometry" />
        </mxCell>
        <mxCell id="yMIgs4-DkIaWkRvwwl_T-34" value="Рендер табличных результатов" style="ellipse;whiteSpace=wrap;html=1;" vertex="1" parent="yMIgs4-DkIaWkRvwwl_T-24">
          <mxGeometry x="19" y="630" width="120" height="50" as="geometry" />
        </mxCell>
        <mxCell id="yMIgs4-DkIaWkRvwwl_T-35" style="edgeStyle=orthogonalEdgeStyle;rounded=0;orthogonalLoop=1;jettySize=auto;html=1;entryX=0.5;entryY=0;entryDx=0;entryDy=0;" edge="1" parent="yMIgs4-DkIaWkRvwwl_T-24" source="yMIgs4-DkIaWkRvwwl_T-36" target="yMIgs4-DkIaWkRvwwl_T-37">
          <mxGeometry relative="1" as="geometry" />
        </mxCell>
        <mxCell id="yMIgs4-DkIaWkRvwwl_T-36" value="Рендер графиков" style="ellipse;whiteSpace=wrap;html=1;" vertex="1" parent="yMIgs4-DkIaWkRvwwl_T-24">
          <mxGeometry x="285" y="630" width="120" height="50" as="geometry" />
        </mxCell>
        <mxCell id="yMIgs4-DkIaWkRvwwl_T-37" value="" style="whiteSpace=wrap;html=1;rounded=0;shadow=0;comic=0;labelBackgroundColor=none;strokeWidth=1;fillColor=#000000;fontFamily=Verdana;fontSize=12;align=center;rotation=0;" vertex="1" parent="yMIgs4-DkIaWkRvwwl_T-24">
          <mxGeometry x="12" y="720" width="398" height="10" as="geometry" />
        </mxCell>
        <mxCell id="yMIgs4-DkIaWkRvwwl_T-55" value="" style="whiteSpace=wrap;html=1;rounded=0;shadow=0;comic=0;labelBackgroundColor=none;strokeWidth=1;fillColor=#000000;fontFamily=Verdana;fontSize=12;align=center;rotation=0;" vertex="1" parent="yMIgs4-DkIaWkRvwwl_T-24">
          <mxGeometry x="19" y="880" width="398" height="10" as="geometry" />
        </mxCell>
        <mxCell id="yMIgs4-DkIaWkRvwwl_T-63" style="edgeStyle=orthogonalEdgeStyle;rounded=0;orthogonalLoop=1;jettySize=auto;html=1;entryX=1;entryY=0.5;entryDx=0;entryDy=0;" edge="1" parent="yMIgs4-DkIaWkRvwwl_T-24" source="yMIgs4-DkIaWkRvwwl_T-56" target="yMIgs4-DkIaWkRvwwl_T-62">
          <mxGeometry relative="1" as="geometry" />
        </mxCell>
        <mxCell id="yMIgs4-DkIaWkRvwwl_T-56" value="" style="whiteSpace=wrap;html=1;rounded=0;shadow=0;comic=0;labelBackgroundColor=none;strokeWidth=1;fillColor=#000000;fontFamily=Verdana;fontSize=12;align=center;rotation=0;" vertex="1" parent="yMIgs4-DkIaWkRvwwl_T-24">
          <mxGeometry x="19" y="1000" width="398" height="10" as="geometry" />
        </mxCell>
        <mxCell id="yMIgs4-DkIaWkRvwwl_T-60" style="edgeStyle=orthogonalEdgeStyle;rounded=0;orthogonalLoop=1;jettySize=auto;html=1;entryX=0.5;entryY=0;entryDx=0;entryDy=0;" edge="1" parent="yMIgs4-DkIaWkRvwwl_T-24" source="yMIgs4-DkIaWkRvwwl_T-58" target="yMIgs4-DkIaWkRvwwl_T-56">
          <mxGeometry relative="1" as="geometry">
            <Array as="points">
              <mxPoint x="90" y="980" />
              <mxPoint x="218" y="980" />
            </Array>
          </mxGeometry>
        </mxCell>
        <mxCell id="yMIgs4-DkIaWkRvwwl_T-58" value="Генерация html кода на основе результатов" style="ellipse;whiteSpace=wrap;html=1;" vertex="1" parent="yMIgs4-DkIaWkRvwwl_T-24">
          <mxGeometry x="30" y="900" width="120" height="70" as="geometry" />
        </mxCell>
        <mxCell id="yMIgs4-DkIaWkRvwwl_T-61" style="edgeStyle=orthogonalEdgeStyle;rounded=0;orthogonalLoop=1;jettySize=auto;html=1;entryX=0.5;entryY=0;entryDx=0;entryDy=0;" edge="1" parent="yMIgs4-DkIaWkRvwwl_T-24" source="yMIgs4-DkIaWkRvwwl_T-59" target="yMIgs4-DkIaWkRvwwl_T-56">
          <mxGeometry relative="1" as="geometry">
            <Array as="points">
              <mxPoint x="345" y="980" />
              <mxPoint x="218" y="980" />
            </Array>
          </mxGeometry>
        </mxCell>
        <mxCell id="yMIgs4-DkIaWkRvwwl_T-59" value="Создание html файла" style="ellipse;whiteSpace=wrap;html=1;" vertex="1" parent="yMIgs4-DkIaWkRvwwl_T-24">
          <mxGeometry x="285" y="900" width="120" height="70" as="geometry" />
        </mxCell>
        <mxCell id="yMIgs4-DkIaWkRvwwl_T-62" value="Открытие файла в браузере" style="rounded=1;whiteSpace=wrap;html=1;shadow=0;comic=0;labelBackgroundColor=none;strokeWidth=1;fontFamily=Verdana;fontSize=12;align=center;arcSize=50;" vertex="1" parent="yMIgs4-DkIaWkRvwwl_T-24">
          <mxGeometry x="30" y="1020" width="132.5" height="60" as="geometry" />
        </mxCell>
        <mxCell id="yMIgs4-DkIaWkRvwwl_T-57" style="edgeStyle=orthogonalEdgeStyle;rounded=0;orthogonalLoop=1;jettySize=auto;html=1;entryX=0.523;entryY=-0.1;entryDx=0;entryDy=0;entryPerimeter=0;" edge="1" parent="yMIgs4-DkIaWkRvwwl_T-1" source="yMIgs4-DkIaWkRvwwl_T-41" target="yMIgs4-DkIaWkRvwwl_T-55">
          <mxGeometry relative="1" as="geometry" />
        </mxCell>
        <mxCell id="yMIgs4-DkIaWkRvwwl_T-64" style="edgeStyle=orthogonalEdgeStyle;rounded=0;orthogonalLoop=1;jettySize=auto;html=1;entryX=1;entryY=0.5;entryDx=0;entryDy=0;" edge="1" parent="yMIgs4-DkIaWkRvwwl_T-1" source="yMIgs4-DkIaWkRvwwl_T-62" target="yMIgs4-DkIaWkRvwwl_T-16">
          <mxGeometry relative="1" as="geometry" />
        </mxCell>
        <mxCell id="yMIgs4-DkIaWkRvwwl_T-39" value="Да" style="text;html=1;align=center;verticalAlign=middle;resizable=0;points=[];autosize=1;strokeColor=none;fillColor=none;" vertex="1" parent="1">
          <mxGeometry x="470" y="595" width="40" height="30" as="geometry" />
        </mxCell>
      </root>
    </mxGraphModel>
  </diagram>
</mxfile>
